<svg fill="none" height="50" viewBox="0 0 54 49" width="50" xmlns="http://www.w3.org/2000/svg"><g clip-path="url(#clip0_15_7507)"><path d="M27.0001 28.835C29.6582 28.835 31.8131 26.6802 31.8131 24.022C31.8131 21.3639 29.6582 19.209 27.0001 19.209C24.3419 19.209 22.187 21.3639 22.187 24.022C22.187 26.6802 24.3419 28.835 27.0001 28.835Z" fill="#61DAFB"></path><path d="M27 33.8838C41.2634 33.8838 52.8261 29.4689 52.8261 24.023C52.8261 18.577 41.2634 14.1621 27 14.1621C12.7367 14.1621 1.17395 18.577 1.17395 24.023C1.17395 29.4689 12.7367 33.8838 27 33.8838Z" stroke="#61DAFB" stroke-width="1.84787"></path><path d="M18.4603 28.9534C25.592 41.3058 35.1968 49.112 39.9132 46.389C44.6295 43.666 42.6716 31.4449 35.5399 19.0925C28.4082 6.74016 18.8034 -1.06601 14.0871 1.65698C9.37068 4.37998 11.3287 16.601 18.4603 28.9534Z" stroke="#61DAFB" stroke-width="1.84787"></path><path d="M18.4603 19.0921C11.3286 31.4445 9.37065 43.6655 14.087 46.3885C18.8034 49.1115 28.4082 41.3053 35.5398 28.9529C42.6715 16.6005 44.6295 4.37949 39.9131 1.65649C35.1967 -1.0665 25.592 6.73966 18.4603 19.0921Z" stroke="#61DAFB" stroke-width="1.84787"></path></g><defs><clipPath id="clip0_15_7507"><rect fill="white" height="48.0446" width="54"></rect></clipPath></defs></svg>